# Made using Asset Forge (www.assetforge.io) version 1.3 

mtllib RoundTable.mtl 

v 0.1 0 0.09999999
v 0.1 0 -0.09999999
v -0.09999999 0 0.09999999
v -0.09999999 0 -0.09999999
v -0.09999999 0.7 -0.09999999
v -0.09999999 0.7 0.09999999
v 0.1 0.7 -0.09999999
v 0.1 0.7 0.09999999
vn 0 -0.7 0
vn -0.2 0 0
vn 0 0 -0.2
vn 0 0 0.2
vn 0.2 0 0
vn 0 0.7 0
vt -0.1 -0.09999999
vt -0.1 0.09999999
vt 0.09999999 -0.09999999
vt 0.09999999 0.09999999
vt -0.09999999 0
vt -0.09999999 0.7
vt 0.09999999 0
vt 0.09999999 0.7
vt -0.1 0
vt -0.1 0.7
vt 0.1 0
vt 0.1 0.7

usemtl _defaultMat (Instance)
usemap _defaultMat (Instance)
f 3/3/1 2/2/1 1/1/1
f 2/2/1 3/3/1 4/4/1
f 3/7/2 5/6/2 4/5/2
f 5/6/2 3/7/2 6/8/2
f 5/8/3 2/9/3 4/7/3
f 2/9/3 5/8/3 7/10/3
f 8/12/4 3/5/4 1/11/4
f 3/5/4 8/12/4 6/6/4
f 8/6/5 2/7/5 7/8/5
f 2/7/5 8/6/5 1/5/5
f 5/3/6 8/2/6 7/1/6
f 8/2/6 5/3/6 6/4/6
v 0.4330127 0.7 -0.25
v 0.4330127 0.6 -0.25
v 0.4829629 0.7 -0.1294095
v 0.4829629 0.6 -0.1294095
v 0.5 0.7 0
v 0.5 0.6 0
v 0.4829629 0.7 0.1294095
v 0.4829629 0.6 0.1294095
v 0.4330127 0.7 0.25
v 0.4330127 0.6 0.25
v 0.3535534 0.6 -0.3535534
v 0.3535534 0.7 -0.3535534
v 0.3535534 0.7 0.3535534
v 0.3535534 0.6 0.3535534
v 0.25 0.6 0.4330127
v 0.25 0.7 0.4330127
v 0.1294095 0.6 0.4829629
v 0.1294095 0.7 0.4829629
v 0 0.6 0.5
v 0 0.7 0.5
v -0.1294095 0.6 0.4829629
v -0.1294095 0.7 0.4829629
v 0.25 0.7 -0.4330127
v 0.25 0.6 -0.4330127
v 0.1294095 0.7 -0.4829629
v 0.1294095 0.6 -0.4829629
v 0 0.7 -0.5
v 0 0.6 -0.5
v -0.1294095 0.7 -0.4829629
v -0.1294095 0.6 -0.4829629
v -0.25 0.6 0.4330127
v -0.25 0.7 0.4330127
v -0.3535534 0.6 0.3535534
v -0.3535534 0.7 0.3535534
v -0.4330127 0.7 0.25
v -0.4330127 0.6 0.25
v -0.4829629 0.7 0.1294095
v -0.4829629 0.6 0.1294095
v -0.5 0.7 0
v -0.5 0.6 0
v -0.4829629 0.7 -0.1294095
v -0.4829629 0.6 -0.1294095
v -0.4330127 0.7 -0.25
v -0.4330127 0.6 -0.25
v -0.3535534 0.7 -0.3535534
v -0.3535534 0.6 -0.3535534
v -0.25 0.6 -0.4330127
v -0.25 0.7 -0.4330127
vn 0.8432718 0 -0.5374875
vn 0.8871137 0 -0.4615509
vn 0.9536499 0 -0.3009182
vn 0.9763442 0 -0.2162221
vn 0.9990385 0 -0.04384198
vn 0.9990385 0 0.04384198
vn 0.9763442 0 0.2162221
vn 0.9536499 0 0.3009182
vn 0.8871137 0 0.4615509
vn 0.8432718 0 0.5374875
vn 0.7071068 0 -0.7071068
vn 0.7071068 0 -0.7071068
vn 0.7071068 0 0.7071068
vn 0.7071068 0 0.7071068
vn 0.5374875 0 0.8432718
vn 0.4615509 0 0.8871137
vn 0.3009182 0 0.9536499
vn 0.2162221 0 0.9763442
vn 0.04384198 0 0.9990385
vn -0.04384198 0 0.9990385
vn -0.2162221 0 0.9763442
vn -0.3009182 0 0.9536499
vn 0.5374875 0 -0.8432718
vn 0.4615509 0 -0.8871137
vn 0.3009182 0 -0.9536499
vn 0.2162221 0 -0.9763442
vn 0.04384198 0 -0.9990385
vn -0.04384198 0 -0.9990385
vn -0.2162221 0 -0.9763442
vn -0.3009182 0 -0.9536499
vn -0.4615509 0 0.8871137
vn -0.5374875 0 0.8432718
vn -0.7071068 0 0.7071068
vn -0.7071068 0 0.7071068
vn -0.8432718 0 0.5374875
vn -0.8871137 0 0.4615509
vn -0.9536499 0 0.3009182
vn -0.9763442 0 0.2162221
vn -0.9990385 0 0.04384198
vn -0.9990385 0 -0.04384198
vn -0.9763442 0 -0.2162221
vn -0.9536499 0 -0.3009182
vn -0.8871137 0 -0.4615509
vn -0.8432718 0 -0.5374875
vn -0.7071068 0 -0.7071068
vn -0.7071068 0 -0.7071068
vn -0.5374875 0 -0.8432718
vn -0.4615509 0 -0.8871137
vn 0 -0.1 0
vn 0 0.1 0
vt 0.25 0.7
vt 0.25 0.6
vt 0.1294095 0.7
vt 0.1294095 0.6
vt 0 0.7
vt 0 0.6
vt -0.1294095 0.7
vt -0.1294095 0.6
vt -0.25 0.7
vt -0.25 0.6
vt 0.3535534 0.6
vt 0.3535534 0.7
vt -0.3535534 0.7
vt -0.3535534 0.6
vt -0.5 0
vt -0.4829629 0.1294095
vt -0.4829629 -0.1294095
vt -0.4330127 0.25
vt -0.4330127 -0.25
vt -0.3535534 0.3535534
vt -0.3535534 -0.3535534
vt -0.25 0.4330127
vt -0.25 -0.4330127
vt -0.1294095 0.4829629
vt -0.1294095 -0.4829629
vt 0 -0.5
vt 0 0.5
vt 0.1294095 -0.4829629
vt 0.1294095 0.4829629
vt 0.25 0.4330127
vt 0.25 -0.4330127
vt 0.3535534 0.3535534
vt 0.3535534 -0.3535534
vt 0.4330127 0.25
vt 0.4330127 -0.25
vt 0.4829629 0.1294095
vt 0.4829629 -0.1294095
vt 0.5 0

usemtl _defaultMat (Instance) (Instance)
usemap _defaultMat (Instance) (Instance)
f 11/15/9 10/14/8 9/13/7
f 10/14/8 11/15/9 12/16/10
f 13/17/11 12/16/10 11/15/9
f 12/16/10 13/17/11 14/18/12
f 15/19/13 14/18/12 13/17/11
f 14/18/12 15/19/13 16/20/14
f 17/21/15 16/20/14 15/19/13
f 16/20/14 17/21/15 18/22/16
f 19/23/17 9/13/7 10/14/8
f 9/13/7 19/23/17 20/24/18
f 21/25/19 18/22/16 17/21/15
f 18/22/16 21/25/19 22/26/20
f 21/24/19 23/14/21 22/23/20
f 23/14/21 21/24/19 24/13/22
f 24/13/22 25/16/23 23/14/21
f 25/16/23 24/13/22 26/15/24
f 26/15/24 27/18/25 25/16/23
f 27/18/25 26/15/24 28/17/26
f 28/17/26 29/20/27 27/18/25
f 29/20/27 28/17/26 30/19/28
f 19/26/17 31/21/29 20/25/18
f 31/21/29 19/26/17 32/22/30
f 32/22/30 33/19/31 31/21/29
f 33/19/31 32/22/30 34/20/32
f 34/20/32 35/17/33 33/19/31
f 35/17/33 34/20/32 36/18/34
f 36/18/34 37/15/35 35/17/33
f 37/15/35 36/18/34 38/16/36
f 30/19/28 39/22/37 29/20/27
f 39/22/37 30/19/28 40/21/38
f 40/21/38 41/26/39 39/22/37
f 41/26/39 40/21/38 42/25/40
f 43/13/41 41/23/39 42/24/40
f 41/23/39 43/13/41 44/14/42
f 45/15/43 44/14/42 43/13/41
f 44/14/42 45/15/43 46/16/44
f 47/17/45 46/16/44 45/15/43
f 46/16/44 47/17/45 48/18/46
f 49/19/47 48/18/46 47/17/45
f 48/18/46 49/19/47 50/20/48
f 51/21/49 50/20/48 49/19/47
f 50/20/48 51/21/49 52/22/50
f 53/25/51 52/22/50 51/21/49
f 52/22/50 53/25/51 54/26/52
f 53/24/51 55/14/53 54/23/52
f 55/14/53 53/24/51 56/13/54
f 56/13/54 38/16/36 55/14/53
f 38/16/36 56/13/54 37/15/35
f 16/29/55 12/28/55 14/27/55
f 12/28/55 16/29/55 10/30/55
f 10/30/55 16/29/55 18/31/55
f 10/30/55 18/31/55 19/32/55
f 19/32/55 18/31/55 22/33/55
f 19/32/55 22/33/55 32/34/55
f 32/34/55 22/33/55 23/35/55
f 32/34/55 23/35/55 34/36/55
f 34/36/55 23/35/55 25/37/55
f 34/36/55 25/37/55 27/38/55
f 34/36/55 27/38/55 36/39/55
f 36/39/55 27/38/55 29/40/55
f 36/39/55 29/40/55 38/41/55
f 38/41/55 29/40/55 55/42/55
f 55/42/55 29/40/55 39/43/55
f 55/42/55 39/43/55 54/44/55
f 54/44/55 39/43/55 41/45/55
f 54/44/55 41/45/55 52/46/55
f 52/46/55 41/45/55 44/47/55
f 52/46/55 44/47/55 50/48/55
f 50/48/55 44/47/55 46/49/55
f 50/48/55 46/49/55 48/50/55
f 11/29/56 15/28/56 13/27/56
f 15/28/56 11/29/56 9/31/56
f 15/28/56 9/31/56 17/30/56
f 17/30/56 9/31/56 20/33/56
f 17/30/56 20/33/56 21/32/56
f 21/32/56 20/33/56 31/35/56
f 21/32/56 31/35/56 24/34/56
f 24/34/56 31/35/56 33/37/56
f 24/34/56 33/37/56 26/36/56
f 26/36/56 33/37/56 35/38/56
f 26/36/56 35/38/56 28/39/56
f 28/39/56 35/38/56 37/40/56
f 28/39/56 37/40/56 30/41/56
f 30/41/56 37/40/56 56/43/56
f 30/41/56 56/43/56 40/42/56
f 40/42/56 56/43/56 53/45/56
f 40/42/56 53/45/56 42/44/56
f 42/44/56 53/45/56 51/47/56
f 42/44/56 51/47/56 43/46/56
f 43/46/56 51/47/56 49/49/56
f 43/46/56 49/49/56 45/48/56
f 45/48/56 49/49/56 47/50/56
