# Made using Asset Forge (www.assetforge.io) version 1.3 

mtllib Table2-2.mtl 

v 0.5 9.023893E-17 -1.375
v 0.5 0 -1.5
v 0.375 9.023893E-17 -1.375
v 0.375 9.023893E-17 -1.5
v -1.5 0 -1.5
v -1.5 1 -1.5
v -1.5 9.023893E-17 -1.375
v -1.5 1 -1.375
v 0.5 1 -1.5
v 0.375 1 -1.5
v -1.5 0 0.5
v -1.5 1 0.5
v -1.375 9.023893E-17 0.5
v -1.375 1 0.5
v 0.5 1 0.375
v 0.5 9.023893E-17 0.375
v 0.5 1 0.5
v 0.5 0 0.5
v 0.375 1 0.375
v 0.375 1 0.5
v -1.375 1 -1.5
v -1.375 1 -1.375
v 0.5 1 -1.375
v 0.375 1 -1.375
v -1.375 1 0.375
v -1.5 1 0.375
v -1.5 9.023893E-17 0.375
v -1.375 9.023893E-17 0.375
v 0.375 9.023893E-17 0.375
v 0.375 9.023893E-17 0.5
v -1.375 9.023893E-17 -1.5
v -1.375 9.023893E-17 -1.375
vn 0 -1 0
vn -2 0 0
vn 0 0 -2
vn 0 0 2
vn 2 0 0
vn 0 1 0
vt -0.5 1.375
vt -0.5 1.5
vt -0.375 1.375
vt -0.375 1.5
vt -1.5 0
vt -1.5 1
vt -1.375 9.023893E-17
vt -1.375 1
vt -0.5 0
vt -0.5 1
vt -0.375 9.023893E-17
vt -0.375 1
vt -0.5 0.375
vt -0.5 0.5
vt -0.375 0.375
vt -0.375 0.5
vt 1.375 -1.5
vt 1.375 -1.375
vt 1.5 -1.5
vt 1.5 -1.375
vt -0.5 -1.5
vt -0.5 -1.375
vt -0.375 -1.5
vt -0.375 -1.375
vt 1.375 0.375
vt 1.375 0.5
vt 1.5 0.375
vt 1.5 0.5
vt 1.5 9.023893E-17
vt 1.375 9.023893E-17
vt 1.5 1
vt 1.375 1
vt -0.5 9.023893E-17
vt 0.375 9.023893E-17
vt 0.375 1
vt 0.5 9.023893E-17
vt 0.5 1
vt -1.5 9.023893E-17
vt 0.5 0
vt 1.5 0
vt 1.375 -0.5
vt 1.375 -0.375
vt 1.5 -0.5
vt 1.5 -0.375
vt -0.5 -0.5
vt -0.5 -0.375
vt -0.375 -0.5
vt -0.375 -0.375
vt 1.375 1.375
vt 1.375 1.5
vt 1.5 1.375
vt 1.5 1.5

usemtl wood (Instance)
usemap wood (Instance)
f 3/3/1 2/2/1 1/1/1
f 2/2/1 3/3/1 4/4/1
f 7/7/2 6/6/2 5/5/2
f 6/6/2 7/7/2 8/8/2
f 4/11/3 9/10/3 2/9/3
f 9/10/3 4/11/3 10/12/3
f 13/7/4 12/6/4 11/5/4
f 12/6/4 13/7/4 14/8/4
f 17/10/5 16/11/5 15/12/5
f 16/11/5 17/10/5 18/9/5
f 19/15/6 17/14/6 15/13/6
f 17/14/6 19/15/6 20/16/6
f 6/19/6 22/18/6 21/17/6
f 22/18/6 6/19/6 8/20/6
f 10/23/6 23/22/6 9/21/6
f 23/22/6 10/23/6 24/24/6
f 26/27/6 14/26/6 25/25/6
f 14/26/6 26/27/6 12/28/6
f 26/31/3 28/30/3 27/29/3
f 28/30/3 26/31/3 25/32/3
f 14/10/5 28/11/5 25/12/5
f 28/11/5 14/10/5 13/33/5
f 30/36/2 19/35/2 29/34/2
f 19/35/2 30/36/2 20/37/2
f 19/12/3 16/33/3 29/11/3
f 16/33/3 19/12/3 15/10/3
f 23/37/4 3/34/4 1/36/4
f 3/34/4 23/37/4 24/35/4
f 3/7/2 10/6/2 4/38/2
f 10/6/2 3/7/2 24/8/2
f 22/32/5 31/29/5 21/31/5
f 31/29/5 22/32/5 32/30/5
f 22/8/4 7/38/4 32/7/4
f 7/38/4 22/8/4 8/6/4
f 17/37/4 30/34/4 18/39/4
f 30/34/4 17/37/4 20/35/4
f 6/31/3 31/30/3 5/40/3
f 31/30/3 6/31/3 21/32/3
f 11/39/2 26/35/2 27/34/2
f 26/35/2 11/39/2 12/37/2
f 23/32/5 2/40/5 9/31/5
f 2/40/5 23/32/5 1/30/5
f 11/43/1 28/42/1 13/41/1
f 28/42/1 11/43/1 27/44/1
f 30/47/1 16/46/1 18/45/1
f 16/46/1 30/47/1 29/48/1
f 7/51/1 31/50/1 32/49/1
f 31/50/1 7/51/1 5/52/1
v 0.625 1 0.5
v 0.625 1 -1.5
v 0.5 1 0.625
v 0.5 1 -1.625
v -1.5 1 0.625
v -1.5 1 -1.625
v -1.625 1 0.5
v -1.625 1 -1.5
v 0.5 1.1 0.625
v -1.5 1.1 0.625
v 0.625 1.1 0.5
v 0.625 1.1 -1.5
v 0.5 1.1 -1.625
v -1.5 1.1 -1.625
v -1.625 1.1 -1.5
v -1.625 1.1 0.5
vn 1.414214 0 1.414214
vn 1.414214 0 -1.414214
vn -1.414214 0 -1.414214
vn -1.414214 0 1.414214
vt -0.625 -0.5
vt -0.625 1.5
vt -0.5 -0.625
vt -0.5 1.625
vt 1.5 -0.625
vt 1.5 1.625
vt 1.625 -0.5
vt 1.625 1.5
vt 0.5 1.1
vt -1.5 1.1
vt 0.625 1.1
vt 0.625 1
vt 1.5 1.1
vt -0.5 1.1
vt -0.625 1
vt -0.625 1.1
vt 1.625 1
vt 1.625 1.1
vt -1.625 1
vt -1.625 1.1
vt -0.625 -1.5
vt -0.625 0.5
vt -0.5 -1.625
vt -0.5 0.625
vt 1.5 -1.625
vt 1.5 0.625
vt 1.625 -1.5
vt 1.625 0.5

usemtl stone (Instance)
usemap stone (Instance)
f 35/55/1 34/54/1 33/53/1
f 34/54/1 35/55/1 36/56/1
f 36/56/1 35/55/1 37/57/1
f 36/56/1 37/57/1 38/58/1
f 38/58/1 37/57/1 39/59/1
f 38/58/1 39/59/1 40/60/1
f 41/61/4 37/6/4 35/37/4
f 37/6/4 41/61/4 42/62/4
f 41/61/7 33/64/7 43/63/7
f 33/64/7 41/61/7 35/37/7
f 43/66/5 34/31/5 44/65/5
f 34/31/5 43/66/5 33/10/5
f 45/66/8 34/67/8 36/10/8
f 34/67/8 45/66/8 44/68/8
f 40/69/9 46/65/9 38/31/9
f 46/65/9 40/69/9 47/70/9
f 39/37/2 47/62/2 40/6/2
f 47/62/2 39/37/2 48/61/2
f 42/62/10 39/71/10 37/6/10
f 39/71/10 42/62/10 48/72/10
f 46/65/3 36/10/3 38/31/3
f 36/10/3 46/65/3 45/66/3

usemtl lightStone (Instance)
usemap lightStone (Instance)
f 45/75/6 43/74/6 44/73/6
f 43/74/6 45/75/6 41/76/6
f 41/76/6 45/75/6 46/77/6
f 41/76/6 46/77/6 42/78/6
f 42/78/6 46/77/6 47/79/6
f 42/78/6 47/79/6 48/80/6
