# Made using Asset Forge (www.assetforge.io) version 1.3 

mtllib Table1-1.mtl 

v 0.5 9.023893E-17 -0.4375
v 0.5 0 -0.5
v 0.4375 9.023893E-17 -0.4375
v 0.4375 9.023893E-17 -0.5
v -0.5 0 -0.5
v -0.5 1 -0.5
v -0.5 9.023893E-17 -0.4375
v -0.5 1 -0.4375
v 0.5 1 -0.5
v 0.4375 1 -0.5
v -0.5 0 0.5
v -0.5 1 0.5
v -0.4375 9.023893E-17 0.5
v -0.4375 1 0.5
v 0.5 1 0.4375
v 0.5 9.023893E-17 0.4375
v 0.5 1 0.5
v 0.5 0 0.5
v 0.4375 1 0.4375
v 0.4375 1 0.5
v -0.4375 1 -0.5
v -0.4375 1 -0.4375
v 0.5 1 -0.4375
v 0.4375 1 -0.4375
v -0.4375 1 0.4375
v -0.5 1 0.4375
v -0.5 9.023893E-17 0.4375
v -0.4375 9.023893E-17 0.4375
v 0.4375 9.023893E-17 0.4375
v 0.4375 9.023893E-17 0.5
v -0.4375 9.023893E-17 -0.5
v -0.4375 9.023893E-17 -0.4375
vn 0 -1 0
vn -1 0 0
vn 0 0 -1
vn 0 0 1
vn 1 0 0
vn 0 1 0
vt -0.5 0.4375
vt -0.5 0.5
vt -0.4375 0.4375
vt -0.4375 0.5
vt -0.5 0
vt -0.5 1
vt -0.4375 9.023893E-17
vt -0.4375 1
vt 0.4375 -0.5
vt 0.4375 -0.4375
vt 0.5 -0.5
vt 0.5 -0.4375
vt -0.5 -0.5
vt -0.5 -0.4375
vt -0.4375 -0.5
vt -0.4375 -0.4375
vt 0.4375 0.4375
vt 0.4375 0.5
vt 0.5 0.4375
vt 0.5 0.5
vt 0.5 9.023893E-17
vt 0.4375 9.023893E-17
vt 0.5 1
vt 0.4375 1
vt -0.5 9.023893E-17
vt 0.5 0

usemtl wood (Instance)
usemap wood (Instance)
f 3/3/1 2/2/1 1/1/1
f 2/2/1 3/3/1 4/4/1
f 7/7/2 6/6/2 5/5/2
f 6/6/2 7/7/2 8/8/2
f 4/7/3 9/6/3 2/5/3
f 9/6/3 4/7/3 10/8/3
f 13/7/4 12/6/4 11/5/4
f 12/6/4 13/7/4 14/8/4
f 17/6/5 16/7/5 15/8/5
f 16/7/5 17/6/5 18/5/5
f 19/3/6 17/2/6 15/1/6
f 17/2/6 19/3/6 20/4/6
f 6/11/6 22/10/6 21/9/6
f 22/10/6 6/11/6 8/12/6
f 10/15/6 23/14/6 9/13/6
f 23/14/6 10/15/6 24/16/6
f 26/19/6 14/18/6 25/17/6
f 14/18/6 26/19/6 12/20/6
f 26/23/3 28/22/3 27/21/3
f 28/22/3 26/23/3 25/24/3
f 14/6/5 28/7/5 25/8/5
f 28/7/5 14/6/5 13/25/5
f 30/21/2 19/24/2 29/22/2
f 19/24/2 30/21/2 20/23/2
f 19/8/3 16/25/3 29/7/3
f 16/25/3 19/8/3 15/6/3
f 23/23/4 3/22/4 1/21/4
f 3/22/4 23/23/4 24/24/4
f 3/7/2 10/6/2 4/25/2
f 10/6/2 3/7/2 24/8/2
f 22/24/5 31/21/5 21/23/5
f 31/21/5 22/24/5 32/22/5
f 22/8/4 7/25/4 32/7/4
f 7/25/4 22/8/4 8/6/4
f 17/23/4 30/22/4 18/26/4
f 30/22/4 17/23/4 20/24/4
f 6/23/3 31/22/3 5/26/3
f 31/22/3 6/23/3 21/24/3
f 11/26/2 26/24/2 27/22/2
f 26/24/2 11/26/2 12/23/2
f 23/24/5 2/26/5 9/23/5
f 2/26/5 23/24/5 1/22/5
f 11/11/1 28/10/1 13/9/1
f 28/10/1 11/11/1 27/12/1
f 30/15/1 16/14/1 18/13/1
f 16/14/1 30/15/1 29/16/1
f 7/19/1 31/18/1 32/17/1
f 31/18/1 7/19/1 5/20/1
v 0.5625 1 0.5
v 0.5625 1 -0.5
v 0.5 1 0.5625
v 0.5 1 -0.5625
v -0.5 1 0.5625
v -0.5 1 -0.5625
v -0.5625 1 0.5
v -0.5625 1 -0.5
v 0.5 1.1 0.5625
v -0.5 1.1 0.5625
v 0.5625 1.1 0.5
v 0.5625 1.1 -0.5
v 0.5 1.1 -0.5625
v -0.5 1.1 -0.5625
v -0.5625 1.1 -0.5
v -0.5625 1.1 0.5
vn 0.7071068 0 0.7071068
vn 0.7071068 0 -0.7071068
vn -0.7071068 0 -0.7071068
vn -0.7071068 0 0.7071068
vt -0.5625 -0.5
vt -0.5625 0.5
vt -0.5 -0.5625
vt -0.5 0.5625
vt 0.5 -0.5625
vt 0.5 0.5625
vt 0.5625 -0.5
vt 0.5625 0.5
vt 0.5 1.1
vt -0.5 1.1
vt 0.5625 1.1
vt 0.5625 1
vt -0.5625 1
vt -0.5625 1.1

usemtl stone (Instance)
usemap stone (Instance)
f 35/29/1 34/28/1 33/27/1
f 34/28/1 35/29/1 36/30/1
f 36/30/1 35/29/1 37/31/1
f 36/30/1 37/31/1 38/32/1
f 38/32/1 37/31/1 39/33/1
f 38/32/1 39/33/1 40/34/1
f 41/35/4 37/6/4 35/23/4
f 37/6/4 41/35/4 42/36/4
f 41/35/7 33/38/7 43/37/7
f 33/38/7 41/35/7 35/23/7
f 43/36/5 34/23/5 44/35/5
f 34/23/5 43/36/5 33/6/5
f 45/36/8 34/39/8 36/6/8
f 34/39/8 45/36/8 44/40/8
f 40/38/9 46/35/9 38/23/9
f 46/35/9 40/38/9 47/37/9
f 39/23/2 47/36/2 40/6/2
f 47/36/2 39/23/2 48/35/2
f 42/36/10 39/39/10 37/6/10
f 39/39/10 42/36/10 48/40/10
f 46/35/3 36/6/3 38/23/3
f 36/6/3 46/35/3 45/36/3

usemtl lightStone (Instance)
usemap lightStone (Instance)
f 45/29/6 43/28/6 44/27/6
f 43/28/6 45/29/6 41/30/6
f 41/30/6 45/29/6 46/31/6
f 41/30/6 46/31/6 42/32/6
f 42/32/6 46/31/6 47/33/6
f 42/32/6 47/33/6 48/34/6
