# Made using Asset Forge (www.assetforge.io) version 1.3 

mtllib ObjectiveMarker.mtl 

v -0.1 0 -0.1
v -0.1 0 0.09999998
v 0.09999999 0 -0.1
v 0.09999999 0 0.09999998
v 0.09999999 0.2 0.09999998
v 0.09999999 0.2 -0.1
v -0.1 0.2 0.09999998
v -0.1 0.2 -0.1
vn 0 -0.2 0
vn 0.2 0 0
vn 0 0 0.2
vn 0 0 -0.2
vn -0.2 0 0
vn 0 0.2 0
vt 0.1 0.1
vt 0.1 -0.09999998
vt -0.09999999 0.1
vt -0.09999999 -0.09999998
vt -0.09999998 0
vt -0.09999998 0.2
vt 0.1 0
vt 0.1 0.2
vt 0.09999999 0
vt -0.1 0
vt 0.09999999 0.2
vt -0.1 0.2
vt 0.1 0
vt -0.09999999 0
vt 0.1 0.2
vt -0.09999999 0.2
vt 0.09999998 0.2
vt 0.09999998 0
vt -0.1 0.2
vt -0.1 0
vt 0.1 0.09999998
vt 0.1 -0.1
vt -0.09999999 0.09999998
vt -0.09999999 -0.1

usemtl _defaultMat (Instance)
usemap _defaultMat (Instance)
f 3/3/1 2/2/1 1/1/1
f 2/2/1 3/3/1 4/4/1
f 3/7/2 5/6/2 4/5/2
f 5/6/2 3/7/2 6/8/2
f 5/11/3 2/10/3 4/9/3
f 2/10/3 5/11/3 7/12/3
f 8/15/4 3/14/4 1/13/4
f 3/14/4 8/15/4 6/16/4
f 8/19/5 2/18/5 7/17/5
f 2/18/5 8/19/5 1/20/5
f 5/23/6 8/22/6 7/21/6
f 8/22/6 5/23/6 6/24/6
v -0.1 0.4 -0.1
v -0.1 0.4 0.09999998
v 0.09999999 0.4 -0.1
v 0.09999999 0.4 0.09999998
v 0.09999999 1.2 0.09999998
v 0.09999999 1.2 -0.1
v -0.1 1.2 0.09999998
v -0.1 1.2 -0.1
vn 0 -0.8 0
vn 0 0.8 0
vt -0.09999998 0.4
vt -0.09999998 1.2
vt 0.1 0.4
vt 0.1 1.2
vt 0.09999999 0.4
vt -0.1 0.4
vt 0.09999999 1.2
vt -0.1 1.2
vt 0.1 0.4
vt -0.09999999 0.4
vt 0.1 1.2
vt -0.09999999 1.2
vt 0.09999998 1.2
vt 0.09999998 0.4
vt -0.1 1.2
vt -0.1 0.4

usemtl _defaultMat (Instance) (Instance)
usemap _defaultMat (Instance) (Instance)
f 11/3/7 10/2/7 9/1/7
f 10/2/7 11/3/7 12/4/7
f 11/27/2 13/26/2 12/25/2
f 13/26/2 11/27/2 14/28/2
f 13/31/3 10/30/3 12/29/3
f 10/30/3 13/31/3 15/32/3
f 16/35/4 11/34/4 9/33/4
f 11/34/4 16/35/4 14/36/4
f 16/39/5 10/38/5 15/37/5
f 10/38/5 16/39/5 9/40/5
f 13/23/8 16/22/8 15/21/8
f 16/22/8 13/23/8 14/24/8
