# Made using Asset Forge (www.assetforge.io) version 1.3 

mtllib Bed.mtl 

v 1.5 1.2 0.5
v 1.5 1.2 -1
v -1.4 1.2 0.5
v -1.4 1.2 -1
v -1.4 1.3 -1
v -1.4 1.3 0.5
v 1.5 1.3 -1
v 1.5 1.3 0.5
vn 0 -0.1 0
vn -2.9 0 0
vn 0 0 -1.5
vn 0 0 1.5
vn 2.9 0 0
vn 0 0.1 0
vt -1.5 -0.5
vt -1.5 1
vt 1.4 -0.5
vt 1.4 1
vt -1 1.2
vt -1 1.3
vt 0.5 1.2
vt 0.5 1.3
vt 1.4 1.2
vt -1.5 1.2
vt 1.4 1.3
vt -1.5 1.3
vt 1.5 1.2
vt -1.4 1.2
vt 1.5 1.3
vt -1.4 1.3
vt 1 1.3
vt 1 1.2
vt -0.5 1.3
vt -0.5 1.2
vt -1.5 -1
vt -1.5 0.5
vt 1.4 -1
vt 1.4 0.5

usemtl stone (Instance) (Instance)
usemap stone (Instance) (Instance)
f 3/3/1 2/2/1 1/1/1
f 2/2/1 3/3/1 4/4/1
f 3/7/2 5/6/2 4/5/2
f 5/6/2 3/7/2 6/8/2
f 5/11/3 2/10/3 4/9/3
f 2/10/3 5/11/3 7/12/3
f 8/15/4 3/14/4 1/13/4
f 3/14/4 8/15/4 6/16/4
f 8/19/5 2/18/5 7/17/5
f 2/18/5 8/19/5 1/20/5
f 5/23/6 8/22/6 7/21/6
f 8/22/6 5/23/6 6/24/6
v 1.5 0 0.5
v 1.5 0 -1
v 1.2 0 0.5
v 1.2 0 -1
v 1.2 1.2 -1
v 1.2 1.2 0.5
vn 0 -1.2 0
vn -0.3 0 0
vn 0.3 0 0
vn 0 1.2 0
vt -1.2 -0.5
vt -1.2 1
vt -1 0
vt 0.5 0
vt -1.2 0
vt -1.5 0
vt -1.2 1.2
vt 1.5 0
vt 1.2 0
vt 1.2 1.2
vt 1 0
vt -0.5 0
vt -1.2 -1
vt -1.2 0.5

usemtl stone (Instance) (Instance)
usemap stone (Instance) (Instance)
f 11/25/7 10/2/7 9/1/7
f 10/2/7 11/25/7 12/26/7
f 11/28/8 13/5/8 12/27/8
f 13/5/8 11/28/8 14/7/8
f 13/31/3 10/30/3 12/29/3
f 10/30/3 13/31/3 2/10/3
f 1/13/4 11/33/4 9/32/4
f 11/33/4 1/13/4 14/34/4
f 1/20/9 10/35/9 2/18/9
f 10/35/9 1/20/9 9/36/9
f 13/37/10 1/22/10 2/21/10
f 1/22/10 13/37/10 14/38/10
v -1.4 0 0.5
v -1.4 0 -1
v -1.5 0 0.5
v -1.5 0 -1
v -1.5 1.9 -1
v -1.5 1.9 0.5
v -1.4 1.9 -1
v -1.4 1.9 0.5
vn 0 -1.9 0
vn -0.1 0 0
vn 0.1 0 0
vn 0 1.9 0
vt 1.5 -0.5
vt 1.5 1
vt -1 1.9
vt 0.5 1.9
vt 1.4 0
vt 1.5 1.9
vt 1.4 1.9
vt -1.4 0
vt -1.4 1.9
vt -1.5 1.9
vt 1 1.9
vt -0.5 1.9
vt 1.5 -1
vt 1.5 0.5

usemtl _defaultMat (Instance) (Instance)
usemap _defaultMat (Instance) (Instance)
f 17/39/11 16/4/11 15/3/11
f 16/4/11 17/39/11 18/40/11
f 17/28/12 19/41/12 18/27/12
f 19/41/12 17/28/12 20/42/12
f 19/44/3 16/43/3 18/32/3
f 16/43/3 19/44/3 21/45/3
f 22/47/4 17/30/4 15/46/4
f 17/30/4 22/47/4 20/48/4
f 22/50/13 16/35/13 21/49/13
f 16/35/13 22/50/13 15/36/13
f 19/51/14 22/24/14 21/23/14
f 22/24/14 19/51/14 20/52/14
v -0.6625 1.3 0.3
v -0.6625 1.3 -0.8
v -0.7 1.3 0.36875
v -0.7 1.3 -0.86875
v -1.3 1.3 0.36875
v -1.3 1.3 -0.86875
v -1.3375 1.3 0.3
v -1.3375 1.3 -0.8
v -0.6625 1.3975 -0.8
v -0.6625 1.3975 0.3
v -0.7 1.3975 -0.86875
v -0.7 1.3975 0.36875
v -1.3 1.3975 -0.86875
v -1.3 1.3975 0.36875
v -1.3375 1.3975 -0.8
v -1.3375 1.3975 0.3
vn 0 -1.5 0
vn 0 1.5 0
vn 0 0 1.1
vn 0.4242641 0 0.7778175
vn 0.6 0 0
vn 0.4242641 0 -0.7778175
vn -0.4242641 0 -0.7778175
vn -0.6 0 0
vn -0.4242641 0 0.7778175
vn 0 0 -1.1
vt 0.6625 -0.3
vt 0.6625 0.8
vt 0.7 -0.36875
vt 0.7 0.86875
vt 1.3 -0.36875
vt 1.3 0.86875
vt 1.3375 -0.3
vt 1.3375 0.8
vt 0.6625 -0.8
vt 0.6625 0.3
vt 0.7 -0.86875
vt 0.7 0.36875
vt 1.3 -0.86875
vt 1.3 0.36875
vt 1.3375 -0.8
vt 1.3375 0.3
vt -0.7 1.3
vt -1.3 1.3
vt -0.7 1.3975
vt -1.3 1.3975
vt -0.3 1.3975
vt -0.3 1.3
vt -0.36875 1.3975
vt -0.36875 1.3
vt 0.8 1.3975
vt 0.8 1.3
vt 0.86875 1.3
vt 0.86875 1.3975
vt -0.86875 1.3
vt -0.86875 1.3975
vt -0.8 1.3
vt -0.8 1.3975
vt 0.3 1.3
vt 0.3 1.3975
vt 0.36875 1.3
vt 0.36875 1.3975
vt 1.3 1.3
vt 0.7 1.3
vt 1.3 1.3975
vt 0.7 1.3975

usemtl stone (Instance)
usemap stone (Instance)
f 25/55/15 24/54/15 23/53/15
f 24/54/15 25/55/15 26/56/15
f 26/56/15 25/55/15 27/57/15
f 26/56/15 27/57/15 28/58/15
f 28/58/15 27/57/15 29/59/15
f 28/58/15 29/59/15 30/60/15
f 33/63/16 32/62/16 31/61/16
f 32/62/16 33/63/16 34/64/16
f 34/64/16 33/63/16 35/65/16
f 34/64/16 35/65/16 36/66/16
f 36/66/16 35/65/16 37/67/16
f 36/66/16 37/67/16 38/68/16
f 34/71/17 27/70/17 25/69/17
f 27/70/17 34/71/17 36/72/17
f 34/75/18 23/74/18 32/73/18
f 23/74/18 34/75/18 25/76/18
f 32/73/19 24/78/19 31/77/19
f 24/78/19 32/73/19 23/74/19
f 33/80/20 24/78/20 26/79/20
f 24/78/20 33/80/20 31/77/20
f 30/83/21 35/82/21 28/81/21
f 35/82/21 30/83/21 37/84/21
f 29/85/22 37/84/22 30/83/22
f 37/84/22 29/85/22 38/86/22
f 36/88/23 29/85/23 27/87/23
f 29/85/23 36/88/23 38/86/23
f 35/91/24 26/90/24 28/89/24
f 26/90/24 35/91/24 33/92/24
v 1.625 1.3 0.5
v 1.625 1.3 -1
v 1.5 1.3 0.59375
v 1.5 1.3 -1.09375
v -0.5 1.3 0.59375
v -0.5 1.3 -1.09375
v -0.625 1.3 0.5
v -0.625 1.3 -1
v 1.625 1.352 -1
v 1.625 1.352 0.5
v 1.5 1.352 -1.09375
v 1.5 1.352 0.59375
v -0.5 1.352 -1.09375
v -0.5 1.352 0.59375
v -0.625 1.352 -1
v -0.625 1.352 0.5
vn 0 -0.8 0
vn 0 0.8 0
vn 1.414214 0 1.06066
vn 2 0 0
vn 1.414214 0 -1.06066
vn -1.414214 0 -1.06066
vn -2 0 0
vn -1.414214 0 1.06066
vt -1.625 -0.5
vt -1.625 1
vt -1.5 -0.59375
vt -1.5 1.09375
vt 0.5 -0.59375
vt 0.5 1.09375
vt 0.625 -0.5
vt 0.625 1
vt -1.625 -1
vt -1.625 0.5
vt -1.5 -1.09375
vt -1.5 0.59375
vt 0.5 -1.09375
vt 0.5 0.59375
vt 0.625 -1
vt 0.625 0.5
vt 1.5 1.3
vt -0.5 1.3
vt 1.5 1.352
vt -0.5 1.352
vt 1.625 1.352
vt 1.625 1.3
vt 1 1.352
vt 1 1.3
vt -1.5 1.3
vt -1.625 1.3
vt -1.5 1.352
vt -1.625 1.352
vt 0.5 1.3
vt 0.5 1.352
vt 0.625 1.3
vt 0.625 1.352
vt -1 1.3
vt -1 1.352
vt -0.625 1.3
vt -0.625 1.352

usemtl customMaterial2 (Instance)
usemap customMaterial2 (Instance)
f 41/95/25 40/94/25 39/93/25
f 40/94/25 41/95/25 42/96/25
f 42/96/25 41/95/25 43/97/25
f 42/96/25 43/97/25 44/98/25
f 44/98/25 43/97/25 45/99/25
f 44/98/25 45/99/25 46/100/25
f 49/103/26 48/102/26 47/101/26
f 48/102/26 49/103/26 50/104/26
f 50/104/26 49/103/26 51/105/26
f 50/104/26 51/105/26 52/106/26
f 52/106/26 51/105/26 53/107/26
f 52/106/26 53/107/26 54/108/26
f 50/111/4 43/110/4 41/109/4
f 43/110/4 50/111/4 52/112/4
f 50/111/27 39/114/27 48/113/27
f 39/114/27 50/111/27 41/109/27
f 48/112/28 40/116/28 47/115/28
f 40/116/28 48/112/28 39/110/28
f 49/119/29 40/118/29 42/117/29
f 40/118/29 49/119/29 47/120/29
f 46/123/30 51/122/30 44/121/30
f 51/122/30 46/123/30 53/124/30
f 45/121/31 53/126/31 46/125/31
f 53/126/31 45/121/31 54/122/31
f 52/112/32 45/127/32 43/110/32
f 45/127/32 52/112/32 54/128/32
f 51/122/3 42/117/3 44/121/3
f 42/117/3 51/122/3 49/119/3
v 1.5125 0.3 0.4999999
v 1.5125 1.3 0.5000001
v 1.4 0.2375 0.4999999
v 1.4 1.3625 0.5000001
v -0.4 0.2375 0.4999999
v -0.4 1.3625 0.5000001
v -0.5124999 0.3 0.4999999
v -0.5124999 1.3 0.5000001
v 1.5125 1.3 0.5910001
v 1.5125 0.3 0.591
v 1.4 1.3625 0.5910001
v 1.4 0.2375 0.591
v -0.4 1.3625 0.5910001
v -0.4 0.2375 0.591
v -0.5124999 1.3 0.5910001
v -0.5124999 0.3 0.591
vn 0 1.192093E-07 -1.4
vn 0 -1.192093E-07 1.4
vn 0 -1 -1.192093E-07
vn 1.272792 -0.7071068 -5.960464E-08
vn 1.8 0 0
vn 1.272792 0.7071068 5.960464E-08
vn -1.272792 0.7071068 5.960464E-08
vn -1.8 0 0
vn -1.272792 -0.7071068 -5.960464E-08
vn 0 1 1.192093E-07
vt -1.5125 0.3
vt -1.5125 1.3
vt -1.4 0.2375
vt -1.4 1.3625
vt 0.4 0.2375
vt 0.4 1.3625
vt 0.5125 0.3
vt 0.5125 1.3
vt 1.5125 1.3
vt 1.5125 0.3
vt 1.4 1.3625
vt 1.4 0.2374999
vt -0.4 1.3625
vt -0.4 0.2374999
vt -0.5125 1.3
vt -0.5125 0.3
vt -1.4 -0.4999999
vt 0.4 -0.4999999
vt -1.4 -0.591
vt 0.4 -0.591
vt -1.5125 -0.591
vt -1.5125 -0.4999999
vt -0.5910001 1.3
vt -0.5000001 1.3
vt -0.591 0.3
vt -0.4999999 0.3
vt -1.4 0.5000001
vt -1.5125 0.5000001
vt -1.4 0.5910001
vt -1.5125 0.5910001
vt 0.4 0.5000001
vt 0.4 0.5910001
vt 0.5125 0.5000001
vt 0.5125 0.5910001
vt 0.5000001 1.3
vt 0.5910001 1.3
vt 0.4999999 0.3
vt 0.591 0.3
vt 0.5125 -0.4999999
vt 0.5125 -0.591

usemtl customMaterial2 (Instance)
usemap customMaterial2 (Instance)
f 57/131/33 56/130/33 55/129/33
f 56/130/33 57/131/33 58/132/33
f 58/132/33 57/131/33 59/133/33
f 58/132/33 59/133/33 60/134/33
f 60/134/33 59/133/33 61/135/33
f 60/134/33 61/135/33 62/136/33
f 65/139/34 64/138/34 63/137/34
f 64/138/34 65/139/34 66/140/34
f 66/140/34 65/139/34 67/141/34
f 66/140/34 67/141/34 68/142/34
f 68/142/34 67/141/34 69/143/34
f 68/142/34 69/143/34 70/144/34
f 66/147/35 59/146/35 57/145/35
f 59/146/35 66/147/35 68/148/35
f 66/147/36 55/150/36 64/149/36
f 55/150/36 66/147/36 57/145/36
f 64/153/37 56/152/37 63/151/37
f 56/152/37 64/153/37 55/154/37
f 65/157/38 56/156/38 58/155/38
f 56/156/38 65/157/38 63/158/38
f 62/161/39 67/160/39 60/159/39
f 67/160/39 62/161/39 69/162/39
f 61/165/40 69/164/40 62/163/40
f 69/164/40 61/165/40 70/166/40
f 68/148/41 61/167/41 59/146/41
f 61/167/41 68/148/41 70/168/41
f 67/160/42 58/155/42 60/159/42
f 58/155/42 67/160/42 65/157/42
v 1.5125 0.3 -1.1
v 1.5125 1.3 -1.1
v 1.4 0.2375 -1.1
v 1.4 1.3625 -1.1
v -0.4 0.2375 -1.1
v -0.4 1.3625 -1.1
v -0.5124999 0.3 -1.1
v -0.5124999 1.3 -1.1
v 1.5125 1.3 -1.009
v 1.5125 0.3 -1.009
v 1.4 1.3625 -1.009
v 1.4 0.2375 -1.009
v -0.4 1.3625 -1.009
v -0.4 0.2375 -1.009
v -0.5124999 1.3 -1.009
v -0.5124999 0.3 -1.009
vt -1.4 1.1
vt 0.4 1.1
vt -1.4 1.009
vt 0.4 1.009
vt -1.5125 1.009
vt -1.5125 1.1
vt 1.009 1.3
vt 1.1 1.3
vt 1.009 0.3
vt 1.1 0.3
vt -1.4 -1.1
vt -1.5125 -1.1
vt -1.4 -1.009
vt -1.5125 -1.009
vt 0.4 -1.1
vt 0.4 -1.009
vt 0.5125 -1.1
vt 0.5125 -1.009
vt -1.1 1.3
vt -1.009 1.3
vt -1.1 0.3
vt -1.009 0.3
vt 0.5125 1.1
vt 0.5125 1.009

usemtl customMaterial2 (Instance)
usemap customMaterial2 (Instance)
f 73/131/33 72/130/33 71/129/33
f 72/130/33 73/131/33 74/132/33
f 74/132/33 73/131/33 75/133/33
f 74/132/33 75/133/33 76/134/33
f 76/134/33 75/133/33 77/135/33
f 76/134/33 77/135/33 78/136/33
f 81/139/34 80/138/34 79/137/34
f 80/138/34 81/139/34 82/140/34
f 82/140/34 81/139/34 83/141/34
f 82/140/34 83/141/34 84/142/34
f 84/142/34 83/141/34 85/143/34
f 84/142/34 85/143/34 86/144/34
f 82/171/35 75/170/35 73/169/35
f 75/170/35 82/171/35 84/172/35
f 82/171/36 71/174/36 80/173/36
f 71/174/36 82/171/36 73/169/36
f 80/177/37 72/176/37 79/175/37
f 72/176/37 80/177/37 71/178/37
f 81/181/38 72/180/38 74/179/38
f 72/180/38 81/181/38 79/182/38
f 78/185/39 83/184/39 76/183/39
f 83/184/39 78/185/39 85/186/39
f 77/189/40 85/188/40 78/187/40
f 85/188/40 77/189/40 86/190/40
f 84/172/41 77/191/41 75/170/41
f 77/191/41 84/172/41 86/192/41
f 83/184/42 74/179/42 76/183/42
f 74/179/42 83/184/42 81/181/42
